<svg width="60" height="67" viewBox="0 0 60 67" fill="none" xmlns="http://www.w3.org/2000/svg">
<path d="M21.5 17C22 28 20.8 51.5 12 57.5C19.8333 56.6667 37.4 56.4 45 62" stroke="#333333" stroke-width="4.5" stroke-linecap="round"/>
<path d="M16 25.6944C17.4645 23.8199 19.0706 21.5984 20.7547 18.6668M20.7547 18.6668C23.862 13.2575 26.3011 7.03917 24.2258 3.66682C21.0258 -1.53317 20.5784 11.5001 20.7547 18.6668Z" stroke="#333333" stroke-width="3" stroke-linecap="round"/>
<path d="M35.4496 65.189C37.8106 64.8991 41.0451 64.3238 44.3089 63.4417M44.3089 63.4417C50.3311 61.814 56.4528 59.1416 57.3699 55.2895C58.7841 49.3498 49.2518 58.2494 44.3089 63.4417Z" stroke="#333333" stroke-width="3" stroke-linecap="round"/>
<path d="M13.5 56.5C10 60.1667 2 67.1 2 63.5C2 59.9 10 57.1667 13.5 56.5Z" stroke="#333333" stroke-width="3" stroke-linecap="round"/>
</svg>
